<svg width="249" height="78" viewBox="0 0 249 78" fill="none" xmlns="http://www.w3.org/2000/svg">
<path d="M66.0911 77.8411H14.235C6.43965 77.8411 0 71.5916 0 63.6529C0 56.0521 6.10072 49.8025 13.5572 49.6336C13.3877 48.6201 13.2182 47.6067 13.2182 46.4243C13.2182 35.6143 22.0304 27 32.7066 27C39.1463 27 45.0775 30.2092 48.6363 35.2765C50.8393 34.0941 53.2118 33.4185 55.7538 33.4185C64.227 33.4185 71.0056 40.1748 71.0056 48.6201C71.0056 49.1269 71.0056 49.8025 70.8361 50.3092C76.259 52.3361 79.9872 57.5722 79.9872 63.484C80.3261 71.4226 73.8865 77.8411 66.0911 77.8411Z" fill="white"/>
<path d="M235.091 52.093H183.235C175.44 52.093 169 45.6896 169 37.5554C169 29.7674 175.101 23.364 182.557 23.1909C182.388 22.1525 182.218 21.1141 182.218 19.9027C182.218 8.82639 191.03 0 201.707 0C208.146 0 214.078 3.28826 217.636 8.48026C219.839 7.26879 222.212 6.57653 224.754 6.57653C233.227 6.57653 240.006 13.4992 240.006 22.1525C240.006 22.6717 240.006 23.364 239.836 23.8832C245.259 25.96 248.987 31.325 248.987 37.3824C249.326 45.5165 242.886 52.093 235.091 52.093Z" fill="white"/>
</svg>
