<svg xmlns="http://www.w3.org/2000/svg" viewBox="0 0 80 50.84"><defs><style>.cls-1{fill:#fff;}</style></defs><title>Risorsa 1</title><g id="Livello_2" data-name="Livello 2"><g id="Livello_1-2" data-name="Livello 1"><path class="cls-1" d="M66.09,50.84H14.23A14.19,14.19,0,0,1,0,36.65a14,14,0,0,1,13.56-14,18.48,18.48,0,0,1-.34-3.21A19.48,19.48,0,0,1,48.64,8.28a14.78,14.78,0,0,1,7.11-1.86A15.16,15.16,0,0,1,71,21.62a5.72,5.72,0,0,1-.17,1.69A14.11,14.11,0,0,1,80,36.48,13.84,13.84,0,0,1,66.09,50.84Z"/></g></g></svg>