<?xml version="1.0" encoding="utf-8"?>
<!-- Generator: Adobe Illustrator 23.0.0, SVG Export Plug-In . SVG Version: 6.00 Build 0)  -->
<svg version="1.1" id="Livello_1" xmlns="http://www.w3.org/2000/svg" xmlns:xlink="http://www.w3.org/1999/xlink" x="0px" y="0px"
	 viewBox="0 0 17.5 16.6" style="enable-background:new 0 0 17.5 16.6;" xml:space="preserve">
<style type="text/css">
	.st0{fill:#FFFFFF;}
</style>
<title>Risorsa 2</title>
<g>
	<g id="Livello_1-2">
		<path class="st0" d="M7.3,8.2V8C6,8.9,2.9,11.3,3.1,11.7c0.2,0.4,3.7-1.3,5.2-1.9l0,0C7.6,9.4,7.3,8.9,7.3,8.2z"/>
		<path class="st0" d="M10.3,8v0.3c0,0.6-0.4,1.2-1,1.5l0,0c1.4,0.7,5,2.3,5.2,1.9C14.7,11.3,11.6,8.9,10.3,8z"/>
		<path class="st0" d="M7.8,7L8,6.9C8.6,6.5,9.3,6.6,9.8,7l0,0C9.7,5.4,9.3,1.5,8.9,1.5C8.5,1.6,8,5.4,7.8,7z"/>
	</g>
	<path class="st0" d="M8.8,9.4L8.8,9.4c-0.6,0-1.1-0.5-1.1-1.1v0c0-0.6,0.5-1.1,1.1-1.1h0c0.6,0,1.1,0.5,1.1,1.1v0
		C9.9,8.9,9.4,9.4,8.8,9.4z"/>
</g>
</svg>
