<svg width="40" height="44" viewBox="0 0 40 44" fill="none" xmlns="http://www.w3.org/2000/svg">
<g clip-path="url(#clip0)">
<path d="M20 20.2703C21.3807 20.2703 22.5 19.0602 22.5 17.5676C22.5 16.0749 21.3807 14.8649 20 14.8649C18.6193 14.8649 17.5 16.0749 17.5 17.5676C17.5 19.0602 18.6193 20.2703 20 20.2703Z" fill="white"/>
<path d="M22.3501 14.4068C21.9814 10.1784 20.9901 0 20.0001 0C19.0101 0 18.0189 10.1784 17.6501 14.4068C18.2939 13.8486 19.1101 13.5135 20.0001 13.5135C20.8901 13.5135 21.7064 13.8486 22.3501 14.4068Z" fill="white"/>
<path d="M23.7101 16.973C23.7363 17.1662 23.7501 17.3662 23.7501 17.5676C23.7501 19.8068 22.0713 21.6216 20.0001 21.6216C17.9288 21.6216 16.2501 19.8068 16.2501 17.5676C16.2501 17.3662 16.2638 17.1662 16.2913 16.9716C13.0963 19.4243 5.41382 25.4568 5.90882 26.3851C6.40257 27.3135 15.0388 23.1595 18.6163 21.3865L17.5001 41.8919C17.5001 41.8919 18.1251 43.2432 20.0001 43.2432C21.8751 43.2432 22.5001 41.8919 22.5001 41.8919L21.3838 21.3878C24.9626 23.1608 33.5976 27.3149 34.0913 26.3878C34.5876 25.4581 26.9038 19.4243 23.7101 16.973Z" fill="white"/>
</g>
<defs>
<clipPath id="clip0">
<rect width="40" height="43.2432" fill="white"/>
</clipPath>
</defs>
</svg>
