<?xml version="1.0" encoding="utf-8"?>
<!-- Generator: Adobe Illustrator 23.0.0, SVG Export Plug-In . SVG Version: 6.00 Build 0)  -->
<svg version="1.1" id="Livello_1" xmlns="http://www.w3.org/2000/svg" xmlns:xlink="http://www.w3.org/1999/xlink" x="0px" y="0px"
	 viewBox="0 0 25 28" style="enable-background:new 0 0 25 28;" xml:space="preserve">
<style type="text/css">
	.st0{clip-path:url(#SVGID_2_);fill:#FFFFFF;}
</style>
<g>
	<defs>
		<rect id="SVGID_1_" x="-6.8" y="-0.4" width="25" height="27"/>
	</defs>
	<clipPath id="SVGID_2_">
		<use xlink:href="#SVGID_1_"  style="overflow:visible;"/>
	</clipPath>
	<path class="st0" d="M12.5,12.7c0.9,0,1.6-0.8,1.6-1.7c0-0.9-0.7-1.7-1.6-1.7S10.9,10,10.9,11C10.9,11.9,11.6,12.7,12.5,12.7z"/>
	<path class="st0" d="M14,9c-0.2-2.6-0.9-9-1.5-9c-0.6,0-1.2,6.4-1.5,9c0.4-0.3,0.9-0.6,1.5-0.6C13.1,8.4,13.6,8.7,14,9z"/>
	<path class="st0" d="M10.2,11c0-0.1,0-0.3,0-0.4c-2,1.5-6.8,5.3-6.5,5.9c0.3,0.6,5.7-2,7.9-3.1l0,0C10.8,13,10.2,12.1,10.2,11z"/>
	<path class="st0" d="M14.8,10.6c0,0.1,0,0.2,0,0.4c0,1.1-0.6,2-1.5,2.4l0,0c2.2,1.1,7.6,3.7,7.9,3.1C21.6,15.9,16.8,12.1,14.8,10.6
		z"/>
	<path class="st0" d="M17.6,15.1l0-0.3c0,0,0,0,0,0l0,0C17.3,14.9,17,15,16.7,15c-0.3,0-0.6-0.1-0.8-0.2l0,0c0,0,0,0,0,0l0,0.3
		l-0.7,12.5c0,0,0.4,0.8,1.6,0.8c1.2,0,1.6-0.8,1.6-0.8L17.6,15.1z"/>
</g>
</svg>
