<svg width="41" height="13" viewBox="0 0 41 13" fill="none" xmlns="http://www.w3.org/2000/svg">
<path d="M5.08594 10.0078L8.33594 0.625H9.97656L5.75781 12H4.42969L0.21875 0.625H1.85156L5.08594 10.0078ZM14.4453 12.1562C13.2995 12.1562 12.3672 11.7812 11.6484 11.0312C10.9297 10.276 10.5703 9.26823 10.5703 8.00781V7.74219C10.5703 6.90365 10.7292 6.15625 11.0469 5.5C11.3698 4.83854 11.8177 4.32292 12.3906 3.95312C12.9688 3.57812 13.5938 3.39062 14.2656 3.39062C15.3646 3.39062 16.2188 3.7526 16.8281 4.47656C17.4375 5.20052 17.7422 6.23698 17.7422 7.58594V8.1875H12.0156C12.0365 9.02083 12.2786 9.69531 12.7422 10.2109C13.2109 10.7214 13.8047 10.9766 14.5234 10.9766C15.0339 10.9766 15.4661 10.8724 15.8203 10.6641C16.1745 10.4557 16.4844 10.1797 16.75 9.83594L17.6328 10.5234C16.9245 11.612 15.862 12.1562 14.4453 12.1562ZM14.2656 4.57812C13.6823 4.57812 13.1927 4.79167 12.7969 5.21875C12.401 5.64062 12.1562 6.23438 12.0625 7H16.2969V6.89062C16.2552 6.15625 16.0573 5.58854 15.7031 5.1875C15.349 4.78125 14.8698 4.57812 14.2656 4.57812ZM20.7891 3.54688L20.8359 4.60938C21.4818 3.79688 22.3255 3.39062 23.3672 3.39062C25.1536 3.39062 26.0547 4.39844 26.0703 6.41406V12H24.625V6.40625C24.6198 5.79688 24.4792 5.34635 24.2031 5.05469C23.9323 4.76302 23.5078 4.61719 22.9297 4.61719C22.4609 4.61719 22.0495 4.74219 21.6953 4.99219C21.3411 5.24219 21.0651 5.57031 20.8672 5.97656V12H19.4219V3.54688H20.7891ZM30.2109 1.5V3.54688H31.7891V4.66406H30.2109V9.90625C30.2109 10.2448 30.2812 10.5 30.4219 10.6719C30.5625 10.8385 30.8021 10.9219 31.1406 10.9219C31.3073 10.9219 31.5365 10.8906 31.8281 10.8281V12C31.4479 12.1042 31.0781 12.1562 30.7188 12.1562C30.0729 12.1562 29.5859 11.9609 29.2578 11.5703C28.9297 11.1797 28.7656 10.625 28.7656 9.90625V4.66406H27.2266V3.54688H28.7656V1.5H30.2109ZM32.9453 7.69531C32.9453 6.86719 33.1068 6.1224 33.4297 5.46094C33.7578 4.79948 34.2109 4.28906 34.7891 3.92969C35.3724 3.57031 36.0365 3.39062 36.7812 3.39062C37.9323 3.39062 38.862 3.78906 39.5703 4.58594C40.2839 5.38281 40.6406 6.44271 40.6406 7.76562V7.86719C40.6406 8.6901 40.4818 9.42969 40.1641 10.0859C39.8516 10.737 39.401 11.2448 38.8125 11.6094C38.2292 11.974 37.5573 12.1562 36.7969 12.1562C35.651 12.1562 34.7214 11.7578 34.0078 10.9609C33.2995 10.1641 32.9453 9.10938 32.9453 7.79688V7.69531ZM34.3984 7.86719C34.3984 8.80469 34.6146 9.55729 35.0469 10.125C35.4844 10.6927 36.0677 10.9766 36.7969 10.9766C37.5312 10.9766 38.1146 10.6901 38.5469 10.1172C38.9792 9.53906 39.1953 8.73177 39.1953 7.69531C39.1953 6.76823 38.974 6.01823 38.5312 5.44531C38.0938 4.86719 37.5104 4.57812 36.7812 4.57812C36.0677 4.57812 35.4922 4.86198 35.0547 5.42969C34.6172 5.9974 34.3984 6.8099 34.3984 7.86719Z" fill="white"/>
</svg>
