<svg class="loading">
  
                                <defs>
                                  <clipPath id="flagMask">
                                    <polygon id="mask" points="100,31 33.032,31 49.467,49.826 32.684,69 100,69 	"/>
                                  </clipPath>
                                </defs>
                               
                              
                              
                              <g clip-path="url(#flagMask)">
                                <path class="flag" fill="#E94741" d="M100,31c-8.118,0-8.364,4.504-16.471,4.504
                                      c-7.657,0-8.026-4.504-16.47-4.504c-8.675,0-8.675,4.504-16.471,4.504c-8.091,0-8.091-4.504-16.471-4.504
                                      c-8.492,0-8.739,4.504-16.47,4.504C9.027,35.504,9.37,31,1.178,31c-8.734,0-8.589,4.504-16.471,4.504S-24.251,31-31.763,31v34.438
                                      c0,0,7.849,3.66,16.47,3.66c7.914,0,8.653-3.66,16.471-3.66c7.822,0,7.357,3.66,16.47,3.66s9.12-3.66,16.47-3.66
                                      c8.01,0,8.133,3.66,16.471,3.66c7.276,0,7.549-3.66,16.471-3.66c8.689,0,8.936,3.66,16.47,3.66c8.497,0,8.333-3.66,16.471-3.66V31z
                                      "/>
                              </g>
                                
                              </svg>