<svg width="207" height="245" viewBox="0 0 207 245" fill="none" xmlns="http://www.w3.org/2000/svg">
<path d="M64.3989 140.436C57.2893 131.707 53 120.401 53 108.051C53 80.4084 74.4853 58 100.989 58C127.492 58 148.977 80.4084 148.977 108.051C148.977 117.781 147.186 127.806 142.579 135.49" stroke="white" stroke-width="10"/>
<path d="M153.765 103.924H201.754M131.37 66.0029L148.966 49.5156L166.562 33.0284M102.577 52.8131V5M67.3854 66.0029L52.9887 49.5156L38.5921 33.0284M5 103.924H52.9887" stroke="white" stroke-width="10" stroke-linecap="round" stroke-linejoin="bevel"/>
<path d="M40.001 205.739C40.029 205.487 40.127 205.27 40.295 205.088C40.463 204.906 40.701 204.815 41.009 204.815H48.275C48.793 204.815 49.129 205.081 49.283 205.613L54.995 224.681L60.749 205.613C60.945 205.081 61.302 204.815 61.82 204.815H69.002C69.254 204.815 69.478 204.906 69.674 205.088C69.884 205.256 70.003 205.473 70.031 205.739C70.521 210.667 71.018 215.56 71.522 220.418C72.04 225.262 72.544 230.148 73.034 235.076V235.181C73.034 235.727 72.726 236 72.11 236H66.167C65.523 236 65.187 235.692 65.159 235.076L63.332 218.843L58.607 235.181C58.579 235.321 58.474 235.489 58.292 235.685C58.124 235.881 57.956 235.979 57.788 235.979H52.265C52.097 235.979 51.915 235.888 51.719 235.706C51.537 235.51 51.439 235.335 51.425 235.181L46.7 218.885L44.873 235.076C44.845 235.692 44.502 236 43.844 236H37.901C37.299 236 36.998 235.692 36.998 235.076L40.001 205.739ZM98.7878 232.808C97.5558 233.942 96.1698 234.831 94.6298 235.475C93.0898 236.105 91.4588 236.42 89.7368 236.42C87.8188 236.42 86.0058 236.07 84.2978 235.37C82.5898 234.67 81.0918 233.704 79.8038 232.472C78.5158 231.226 77.4938 229.763 76.7378 228.083C75.9818 226.403 75.6038 224.576 75.6038 222.602C75.6038 221.37 75.7508 220.18 76.0448 219.032C76.3528 217.87 76.7798 216.785 77.3258 215.777C77.8858 214.769 78.5578 213.845 79.3418 213.005C80.1398 212.151 81.0288 211.423 82.0088 210.821C82.9888 210.219 84.0528 209.75 85.2008 209.414C86.3488 209.078 87.5598 208.91 88.8338 208.91C89.9958 208.91 91.1228 209.064 92.2148 209.372C93.3068 209.68 94.3288 210.114 95.2808 210.674C96.2468 211.234 97.1288 211.906 97.9268 212.69C98.7248 213.474 99.4108 214.335 99.9848 215.273C100.559 216.197 101 217.191 101.308 218.255C101.63 219.305 101.791 220.39 101.791 221.51C101.791 222.238 101.777 222.833 101.749 223.295C101.735 223.757 101.63 224.128 101.434 224.408C101.238 224.674 100.909 224.863 100.447 224.975C99.9988 225.073 99.3338 225.122 98.4518 225.122H83.3318C83.4718 226.018 83.7518 226.767 84.1718 227.369C84.6058 227.971 85.1028 228.454 85.6628 228.818C86.2228 229.168 86.8178 229.42 87.4478 229.574C88.0778 229.728 88.6728 229.805 89.2328 229.805C89.7368 229.805 90.2548 229.756 90.7868 229.658C91.3188 229.546 91.8298 229.406 92.3198 229.238C92.8238 229.056 93.2788 228.853 93.6848 228.629C94.1048 228.391 94.4408 228.146 94.6928 227.894C94.9168 227.712 95.1058 227.579 95.2598 227.495C95.4278 227.397 95.6028 227.348 95.7848 227.348C95.9668 227.348 96.1488 227.411 96.3308 227.537C96.5268 227.663 96.7438 227.845 96.9818 228.083L99.2078 230.603C99.3618 230.785 99.4598 230.953 99.5018 231.107C99.5438 231.247 99.5648 231.394 99.5648 231.548C99.5648 231.828 99.4878 232.073 99.3338 232.283C99.1798 232.479 98.9978 232.654 98.7878 232.808ZM88.6868 215.315C88.1408 215.315 87.6088 215.427 87.0908 215.651C86.5868 215.861 86.1108 216.148 85.6628 216.512C85.2148 216.876 84.8088 217.289 84.4448 217.751C84.0948 218.213 83.8078 218.682 83.5838 219.158H94.3148C94.0208 218.612 93.6988 218.108 93.3488 217.646C93.0128 217.184 92.6208 216.778 92.1728 216.428C91.7388 216.078 91.2348 215.805 90.6608 215.609C90.1008 215.413 89.4428 215.315 88.6868 215.315ZM106.157 205.172C106.157 204.738 106.297 204.416 106.577 204.206C106.871 203.982 107.284 203.772 107.816 203.576L112.583 201.917C112.653 201.903 112.716 201.896 112.772 201.896C112.842 201.896 112.905 201.896 112.961 201.896C113.479 201.896 113.822 202.05 113.99 202.358C114.172 202.652 114.263 203.044 114.263 203.534L114.242 209.309H117.119C117.567 209.309 117.931 209.442 118.211 209.708C118.491 209.974 118.631 210.373 118.631 210.905V214.958C118.631 215.546 118.491 215.98 118.211 216.26C117.931 216.526 117.567 216.659 117.119 216.659H114.242L114.263 234.383C114.263 234.915 114.109 235.321 113.801 235.601C113.493 235.867 113.066 236 112.52 236H107.774C106.696 236 106.157 235.461 106.157 234.383L106.136 216.659H103.973C102.895 216.659 102.356 216.092 102.356 214.958V210.905C102.356 209.841 102.895 209.309 103.973 209.309H106.136L106.157 205.172ZM120.988 222.686C120.988 221.398 121.149 220.159 121.471 218.969C121.807 217.779 122.269 216.68 122.857 215.672C123.459 214.65 124.173 213.726 124.999 212.9C125.839 212.06 126.77 211.346 127.792 210.758C128.814 210.17 129.913 209.715 131.089 209.393C132.279 209.071 133.518 208.91 134.806 208.91C136.71 208.91 138.495 209.267 140.161 209.981C141.841 210.681 143.297 211.654 144.529 212.9C145.775 214.132 146.755 215.588 147.469 217.268C148.197 218.934 148.561 220.74 148.561 222.686C148.561 223.974 148.393 225.213 148.057 226.403C147.735 227.579 147.273 228.678 146.671 229.7C146.083 230.722 145.369 231.653 144.529 232.493C143.703 233.319 142.779 234.033 141.757 234.635C140.735 235.223 139.636 235.678 138.46 236C137.298 236.322 136.08 236.483 134.806 236.483C133.518 236.483 132.279 236.322 131.089 236C129.913 235.678 128.814 235.223 127.792 234.635C126.77 234.033 125.839 233.319 124.999 232.493C124.173 231.653 123.459 230.722 122.857 229.7C122.269 228.678 121.807 227.579 121.471 226.403C121.149 225.213 120.988 223.974 120.988 222.686ZM128.653 222.686C128.653 223.61 128.793 224.478 129.073 225.29C129.367 226.088 129.773 226.781 130.291 227.369C130.823 227.957 131.46 228.426 132.202 228.776C132.958 229.112 133.805 229.28 134.743 229.28C135.653 229.28 136.472 229.112 137.2 228.776C137.942 228.426 138.565 227.957 139.069 227.369C139.587 226.781 139.979 226.088 140.245 225.29C140.525 224.478 140.665 223.61 140.665 222.686C140.665 221.79 140.525 220.936 140.245 220.124C139.979 219.312 139.587 218.598 139.069 217.982C138.565 217.366 137.942 216.883 137.2 216.533C136.472 216.169 135.653 215.987 134.743 215.987C133.805 215.987 132.958 216.169 132.202 216.533C131.46 216.883 130.823 217.366 130.291 217.982C129.773 218.598 129.367 219.312 129.073 220.124C128.793 220.936 128.653 221.79 128.653 222.686ZM152.838 210.968C152.838 210.422 153.013 210.016 153.363 209.75C153.713 209.47 154.098 209.33 154.518 209.33H159.285C159.789 209.33 160.181 209.491 160.461 209.813C160.741 210.135 160.881 210.52 160.881 210.968V235.076C160.881 236.378 160.608 237.603 160.062 238.751C159.516 239.899 158.781 240.9 157.857 241.754C156.933 242.608 155.869 243.28 154.665 243.77C153.475 244.26 152.229 244.505 150.927 244.505H150.423C149.919 244.477 149.534 244.316 149.268 244.022C149.002 243.742 148.869 243.399 148.869 242.993V239.99C148.869 239.486 149.03 239.08 149.352 238.772C149.66 238.464 150.038 238.31 150.486 238.31H150.927C151.207 238.31 151.466 238.191 151.704 237.953C151.942 237.729 152.145 237.449 152.313 237.113C152.481 236.777 152.607 236.42 152.691 236.042C152.789 235.678 152.838 235.356 152.838 235.076V210.968ZM152.733 200.342C152.733 199.754 152.859 199.341 153.111 199.103C153.363 198.851 153.755 198.725 154.287 198.725H159.159C159.649 198.725 160.041 198.851 160.335 199.103C160.643 199.341 160.797 199.754 160.797 200.342V204.437C160.797 204.605 160.755 204.787 160.671 204.983C160.601 205.179 160.496 205.368 160.356 205.55C160.216 205.732 160.041 205.886 159.831 206.012C159.635 206.124 159.411 206.18 159.159 206.18H154.287C153.251 206.18 152.733 205.599 152.733 204.437V200.342ZM165.919 210.968C165.919 210.52 166.045 210.135 166.297 209.813C166.549 209.491 166.941 209.33 167.473 209.33H172.282C172.45 209.33 172.632 209.372 172.828 209.456C173.024 209.526 173.206 209.638 173.374 209.792C173.542 209.932 173.682 210.1 173.794 210.296C173.92 210.492 173.983 210.716 173.983 210.968V234.383C173.983 234.915 173.836 235.321 173.542 235.601C173.248 235.867 172.828 236 172.282 236H167.473C166.437 236 165.919 235.461 165.919 234.383V210.968ZM165.919 200.342C165.919 199.754 166.045 199.341 166.297 199.103C166.549 198.851 166.941 198.725 167.473 198.725H172.345C172.835 198.725 173.227 198.851 173.521 199.103C173.829 199.341 173.983 199.754 173.983 200.342V204.437C173.983 204.605 173.941 204.787 173.857 204.983C173.787 205.179 173.682 205.368 173.542 205.55C173.402 205.732 173.227 205.886 173.017 206.012C172.821 206.124 172.597 206.18 172.345 206.18H167.473C166.437 206.18 165.919 205.599 165.919 204.437V200.342Z" fill="white"/>
<path d="M201.428 159.059C198.677 157.881 195.693 159.745 194.762 163.22C192.447 171.859 188.156 176.059 181.643 176.059C175.319 176.059 169.504 170.213 167.173 161.514C166.43 158.742 164.382 157.001 162.188 157.005C162.162 157.003 162.137 157.003 162.111 157.002C162.081 157.003 162.05 157.003 162.019 157.005C159.828 157.005 157.784 158.745 157.042 161.513C154.711 170.213 148.896 176.058 142.572 176.058C136.248 176.058 130.433 170.213 128.102 161.513C127.36 158.742 125.311 157.001 123.117 157.004C123.092 157.003 123.066 157.002 123.041 157.001C123.01 157.002 122.979 157.003 122.948 157.004C120.757 157.005 118.713 158.744 117.971 161.512C115.64 170.213 109.825 176.057 103.501 176.057C97.1773 176.057 91.3619 170.212 89.0309 161.512C88.2886 158.741 86.2405 157.001 84.0467 157.003C84.0209 157.002 83.9957 157.001 83.9699 157.001C83.9389 157.001 83.9084 157.002 83.8774 157.003C81.6863 157.004 79.6423 158.744 78.9005 161.512C76.569 170.212 70.7542 176.057 64.4304 176.057C58.1067 176.057 52.2913 170.211 49.9603 161.512C49.218 158.741 47.1693 157 44.976 157.003C44.9503 157.001 44.9245 157.001 44.8988 157C44.8677 157.001 44.8367 157.001 44.8057 157.003C42.6151 157.004 40.5711 158.744 39.8294 161.511C37.4968 170.213 31.6819 176.059 25.3577 176.059C18.8446 176.059 14.5533 171.859 12.2381 163.22C11.307 159.746 8.32312 157.881 5.57261 159.059C2.82263 160.235 1.34802 164.005 2.27905 167.481C6.00212 181.375 14.414 189.344 25.3571 189.344C32.9436 189.344 40.0281 184.695 44.8924 177.07C49.7568 184.695 56.8418 189.344 64.4283 189.344C72.0148 189.344 79.0993 184.695 83.9636 177.07C88.8285 184.695 95.913 189.344 103.499 189.344C111.085 189.344 118.17 184.695 123.035 177.07C127.9 184.695 134.984 189.344 142.571 189.344C150.157 189.344 157.242 184.695 162.107 177.07C166.971 184.695 174.056 189.344 181.642 189.344C192.585 189.344 200.997 181.375 204.72 167.481C205.653 164.006 204.178 160.236 201.428 159.059Z" fill="white"/>
<path d="M162.32 115.036C159.487 113.872 156.413 115.715 155.454 119.153C153.069 127.701 148.649 131.855 141.94 131.855C135.426 131.855 129.436 126.072 127.035 117.465C126.271 114.726 124.164 113.004 121.906 113.005C121.876 113.004 121.846 113.003 121.817 113.002C121.789 113.003 121.76 113.004 121.732 113.005C119.473 113.003 117.365 114.725 116.6 117.466C114.199 126.073 108.209 131.856 101.696 131.856C95.1818 131.856 89.1917 126.073 86.7907 117.466C86.0266 114.727 83.9191 113.004 81.6605 113.006C81.6312 113.004 81.602 113.004 81.5722 113.003C81.5441 113.004 81.5154 113.004 81.4872 113.006C79.2281 113.004 77.12 114.725 76.3554 117.466C73.9538 126.074 67.9643 131.857 61.4505 131.857C54.9368 131.857 48.9467 126.073 46.5457 117.466C45.5867 114.029 42.5125 112.184 39.6799 113.349C36.8473 114.513 35.3284 118.243 36.2874 121.682C40.1787 135.629 50.2907 145 61.4505 145C69.265 145 76.5622 140.4 81.5733 132.857C86.5844 140.401 93.8817 145 101.696 145C109.511 145 116.808 140.4 121.819 132.857C126.83 140.401 134.127 145 141.942 145C153.214 145 161.878 137.116 165.713 123.37C166.671 119.931 165.152 116.201 162.32 115.036Z" fill="white"/>
</svg>
