<svg width="20" height="15" viewBox="0 0 20 15" fill="none" xmlns="http://www.w3.org/2000/svg">
<path d="M15.9758 9.83609C13.7625 9.83609 11.9517 7.62297 11.9517 4.91805C11.9517 2.21312 13.7625 0 15.9758 0C18.1891 0 20 2.21312 20 4.91805C20 7.62297 18.2293 9.83609 15.9758 9.83609Z" fill="#FFFF00"/>
<path d="M15.6942 15H3.38028C1.52918 15 0 13.1803 0 10.8689C0 8.65574 1.44869 6.83607 3.21932 6.78689C3.17908 6.49181 3.13883 6.19673 3.13883 5.85246C3.13883 2.75411 5.23139 0.245911 7.7666 0.245911C9.29578 0.245911 10.7042 1.18034 11.5493 2.65575C12.0724 2.31148 12.6358 2.11476 13.2394 2.11476C15.2515 2.11476 16.8612 4.08197 16.8612 6.54099C16.8612 6.68853 16.8612 6.88525 16.8209 7.03279C18.1087 7.62296 18.994 9.14754 18.994 10.8689C19.0745 13.1803 17.5453 15 15.6942 15Z" fill="#BEB1B1"/>
</svg>
