<svg width="20" height="20" viewBox="0 0 20 20" fill="none" xmlns="http://www.w3.org/2000/svg">
<path d="M16.5228 12.8358H3.55875C1.60991 12.8358 0 11.258 0 9.25373C0 7.33475 1.52518 5.75693 3.38929 5.71428C3.34692 5.45842 3.30456 5.20256 3.30456 4.90405C3.30456 2.17484 5.50759 0 8.17666 0C9.78657 0 11.2694 0.810234 12.1591 2.08955C12.7098 1.79104 13.303 1.62047 13.9384 1.62047C16.0568 1.62047 17.7514 3.32623 17.7514 5.45842C17.7514 5.58635 17.7514 5.75693 17.709 5.88486C19.0647 6.39659 19.9968 7.71855 19.9968 9.21109C20.0815 11.2154 18.4716 12.8358 16.5228 12.8358Z" fill="#BEB1B1"/>
<path d="M4.32139 13.6887C4.02483 13.6887 3.77063 13.9446 3.77063 14.2431V17.6546C3.77063 17.9531 4.02483 18.2089 4.32139 18.2089C4.61795 18.2089 4.87215 17.9531 4.87215 17.6546V14.2431C4.87215 13.9446 4.61795 13.6887 4.32139 13.6887Z" fill="white"/>
<path d="M8.98167 13.6887C8.68511 13.6887 8.43091 13.9446 8.43091 14.2431V17.6546C8.43091 17.9531 8.68511 18.2089 8.98167 18.2089C9.27823 18.2089 9.53243 17.9531 9.53243 17.6546V14.2431C9.49006 13.9446 9.27823 13.6887 8.98167 13.6887Z" fill="white"/>
<path d="M11.2695 13.6887C10.9729 13.6887 10.7188 13.9446 10.7188 14.2431V19.4456C10.7188 19.7441 10.9729 20 11.2695 20C11.5661 20 11.8203 19.7441 11.8203 19.4456V14.2431C11.8203 13.9446 11.5661 13.6887 11.2695 13.6887Z" fill="white"/>
<path d="M6.65159 13.6887C6.35503 13.6887 6.10083 13.9446 6.10083 14.2431V19.4456C6.10083 19.7441 6.35503 20 6.65159 20C6.94815 20 7.20235 19.7441 7.20235 19.4456V14.2431C7.15998 13.9446 6.94815 13.6887 6.65159 13.6887Z" fill="white"/>
<path d="M13.5996 13.6887C13.303 13.6887 13.0912 13.9446 13.0912 14.2431V17.6546C13.0912 17.9531 13.3454 18.2089 13.5996 18.2089C13.8961 18.2089 14.1503 17.9531 14.1503 17.6546V14.2431C14.1503 13.9446 13.8961 13.6887 13.5996 13.6887Z" fill="white"/>
<path d="M15.8025 13.6887C15.5059 13.6887 15.2517 13.9446 15.2517 14.2431V15.9488C15.2517 16.2473 15.5059 16.5032 15.8025 16.5032C16.099 16.5032 16.3532 16.2473 16.3532 15.9488V14.2431C16.3109 13.9446 16.0567 13.6887 15.8025 13.6887Z" fill="white"/>
</svg>
