<svg width="21" height="19" viewBox="0 0 21 19" fill="none" xmlns="http://www.w3.org/2000/svg">
<path d="M19.7728 4.8438L15.1576 0.22834C15.0052 0.0760712 14.8246 0 14.6165 0C14.5207 0 14.4203 0.0200387 14.3162 0.0599897C14.0036 0.196261 13.8473 0.432642 13.8473 0.769174V3.07703H11.9241C11.0749 3.07703 10.2874 3.12111 9.5624 3.20922C8.8373 3.29729 8.19826 3.41942 7.64538 3.57581C7.09247 3.73191 6.59365 3.92632 6.14893 4.1587C5.70429 4.391 5.3257 4.63744 5.01312 4.8979C4.7005 5.15832 4.42615 5.45486 4.18977 5.78739C3.95327 6.11988 3.76509 6.44635 3.62473 6.76689C3.48463 7.08751 3.37248 7.44004 3.28829 7.8246C3.20401 8.20925 3.14797 8.56978 3.11994 8.90623C3.0919 9.24276 3.07788 9.60746 3.07788 9.99989C3.07788 10.4488 3.1481 10.9375 3.28829 11.4665C3.42851 11.9952 3.58276 12.4519 3.75103 12.8366C3.91925 13.2209 4.11766 13.6197 4.34604 14.0323C4.57438 14.4449 4.73258 14.7192 4.82074 14.8555C4.90885 14.9915 4.99313 15.116 5.0732 15.2281C5.15331 15.3322 5.25746 15.3843 5.38561 15.3843C5.41781 15.3843 5.46568 15.3764 5.52988 15.3604C5.71414 15.2722 5.79421 15.1362 5.77017 14.9518C5.40965 12.2595 5.70618 10.3643 6.65962 9.26659C7.58123 8.21691 9.336 7.69199 11.924 7.69199H13.8473V9.99964C13.8473 10.3365 14.0035 10.5727 14.3161 10.709C14.4201 10.7491 14.5204 10.769 14.6163 10.769C14.8327 10.769 15.0131 10.6929 15.1575 10.5408L19.7728 5.92526C19.9249 5.77291 20.0011 5.59277 20.0011 5.38443C20.0011 5.17625 19.9249 4.99582 19.7728 4.8438Z" fill="white"/>
<path d="M16.6706 11.5384C16.518 11.474 16.378 11.5062 16.25 11.6345C16.0416 11.8268 15.8251 11.9752 15.6008 12.0792C15.4563 12.1593 15.3844 12.2754 15.3844 12.4276V15C15.3844 15.5288 15.1964 15.9812 14.8196 16.3581C14.4431 16.7347 13.9901 16.923 13.4614 16.923H3.46138C2.93246 16.923 2.47974 16.7347 2.10313 16.3581C1.72648 15.9812 1.53826 15.5289 1.53826 15V4.99982C1.53826 4.47094 1.72648 4.01838 2.10313 3.64178C2.4797 3.26512 2.93242 3.0769 3.46138 3.0769H4.80755C4.85558 3.0769 4.91978 3.06078 4.99985 3.02879C5.44862 2.75628 5.98128 2.51582 6.5984 2.30752C6.80674 2.26753 6.91089 2.13938 6.91089 1.92291C6.91089 1.81876 6.87288 1.7288 6.79672 1.65251C6.72056 1.57657 6.6306 1.53851 6.52632 1.53851H3.46155C2.50803 1.53851 1.69268 1.87707 1.01557 2.55413C0.338552 3.23115 0 4.04651 0 5.00003V14.9999C0 15.9534 0.338552 16.7688 1.01561 17.4459C1.69272 18.123 2.50807 18.4615 3.46159 18.4615H13.4616C14.415 18.4615 15.2304 18.123 15.9075 17.4459C16.5847 16.7688 16.9232 15.9535 16.9232 14.9999V11.8869C16.9232 11.7267 16.839 11.6106 16.6706 11.5384Z" fill="white"/>
</svg>
