<?xml version="1.0" encoding="utf-8"?>
<!-- Generator: Adobe Illustrator 23.0.0, SVG Export Plug-In . SVG Version: 6.00 Build 0)  -->
<svg version="1.1" id="Livello_1" xmlns="http://www.w3.org/2000/svg" xmlns:xlink="http://www.w3.org/1999/xlink" x="0px" y="0px"
	 viewBox="0 0 463 463" style="enable-background:new 0 0 463 463;" xml:space="preserve">
<style type="text/css">
	.st0{fill:#D0DAD9;}
	.st1{fill:#FFA754;}
	.st2{fill:#60A2D7;}
	.st3{fill:#B7F9FE;}
</style>
<path class="st0" d="M367.2,327.8h8c33.5,0,64-19,78.8-49.1c14.8-30,11.2-65.9-9.2-92.4c-20.4-26.5-54.2-39.1-87-32.5
	c-4.3-21.5-18.3-39.9-37.9-49.9c-19.6-9.9-42.7-10.4-62.6-1.1c-18-49.7-73-75.4-122.7-57.3c-49.7,18-75.4,73-57.3,122.7
	c-43.5,1.4-77.9,37.4-77.3,81c0.7,43.6,36.1,78.5,79.7,78.6"/>
<path class="st1" d="M207.5,216h-63.9l-31.9,95.8h71.9l-22.6,111.8l94.4-143.7h-63.9L207.5,216z"/>
<path class="st2" d="M335.2,375.7c0,17.6-14.3,31.9-31.9,31.9c-17.6,0-31.9-14.3-31.9-31.9c0-24,31.9-79.9,31.9-79.9
	S335.2,351.7,335.2,375.7z"/>
<path class="st3" d="M335.2,232c0,17.6-14.3,31.9-31.9,31.9c-17.6,0-31.9-14.3-31.9-31.9s14.3-31.9,31.9-31.9
	C320.9,200,335.2,214.3,335.2,232z"/>
</svg>
